<?xml version="1.0" encoding="UTF-8"?>
<svg width="200" height="80" viewBox="0 0 200 80" xmlns="http://www.w3.org/2000/svg">
  <defs>
    <style>
      .text-fill { fill: #1e3a8a; }
      .star-fill { fill: #1e3a8a; }
      .lines { stroke: #1e3a8a; stroke-width: 1.5; fill: none; }
    </style>
  </defs>
  
  <!-- Texas star outline -->
  <g transform="translate(10, 15)">
    <polygon class="star-fill" points="25,5 30,18 44,18 33,28 38,42 25,33 12,42 17,28 6,18 20,18"/>
    <!-- Horizontal lines on star -->
    <line class="lines" x1="8" y1="20" x2="22" y2="20"/>
    <line class="lines" x1="8" y1="24" x2="22" y2="24"/>
    <line class="lines" x1="8" y1="28" x2="22" y2="28"/>
    <line class="lines" x1="8" y1="32" x2="22" y2="32"/>
    <line class="lines" x1="28" y1="20" x2="42" y2="20"/>
    <line class="lines" x1="28" y1="24" x2="42" y2="24"/>
    <line class="lines" x1="28" y1="28" x2="42" y2="28"/>
    <line class="lines" x1="28" y1="32" x2="42" y2="32"/>
  </g>
  
  <!-- DIR text -->
  <g transform="translate(60, 15)">
    <!-- D -->
    <path class="text-fill" d="M0,0 L0,50 L20,50 C30,50 35,45 35,35 L35,15 C35,5 30,0 20,0 Z M8,8 L20,8 C25,8 27,10 27,15 L27,35 C27,40 25,42 20,42 L8,42 Z"/>
    <!-- I -->
    <rect class="text-fill" x="45" y="0" width="8" height="50"/>
    <!-- R -->
    <path class="text-fill" d="M63,0 L63,50 L71,50 L71,30 L85,30 L95,50 L105,50 L93,28 C98,26 101,22 101,15 C101,5 96,0 86,0 Z M71,8 L86,8 C91,8 93,10 93,15 C93,20 91,22 86,22 L71,22 Z"/>
  </g>
  
  <!-- Subtitle -->
  <text x="60" y="72" class="text-fill" font-family="Arial, sans-serif" font-size="8">Texas Department of Information Resources</text>
</svg>